<?xml version="1.0" encoding="UTF-8" standalone="no"?>
<!-- Created with Inkscape (http://www.inkscape.org/) -->

<svg
   xmlns:dc="http://purl.org/dc/elements/1.1/"
   xmlns:cc="http://creativecommons.org/ns#"
   xmlns:rdf="http://www.w3.org/1999/02/22-rdf-syntax-ns#"
   xmlns:svg="http://www.w3.org/2000/svg"
   xmlns="http://www.w3.org/2000/svg"
   xmlns:sodipodi="http://sodipodi.sourceforge.net/DTD/sodipodi-0.dtd"
   xmlns:inkscape="http://www.inkscape.org/namespaces/inkscape"
   width="512"
   height="512"
   viewBox="0 0 135.46666 135.46667"
   version="1.1"
   id="svg8"
   inkscape:version="0.92.3 (2405546, 2018-03-11)"
   sodipodi:docname="logo-2.svg">
  <defs
     id="defs2" />
  <sodipodi:namedview
     id="base"
     pagecolor="#ffffff"
     bordercolor="#666666"
     borderopacity="1.0"
     inkscape:pageopacity="0.0"
     inkscape:pageshadow="2"
     inkscape:zoom="2"
     inkscape:cx="150.63688"
     inkscape:cy="187.55846"
     inkscape:document-units="mm"
     inkscape:current-layer="layer1"
     showgrid="false"
     units="px"
     inkscape:window-width="2560"
     inkscape:window-height="1415"
     inkscape:window-x="0"
     inkscape:window-y="0"
     inkscape:window-maximized="1" />
  <metadata
     id="metadata5">
    <rdf:RDF>
      <cc:Work
         rdf:about="">
        <dc:format>image/svg+xml</dc:format>
        <dc:type
           rdf:resource="http://purl.org/dc/dcmitype/StillImage" />
        <dc:title></dc:title>
      </cc:Work>
    </rdf:RDF>
  </metadata>
  <g
     inkscape:label="Layer 1"
     inkscape:groupmode="layer"
     id="layer1"
     transform="translate(0,-161.53332)">
    <path
       style="fill:#cccccc;stroke:none;stroke-width:0.37533003px;stroke-linecap:butt;stroke-linejoin:miter;stroke-opacity:1"
       d="M 74.682339,206.03133 C 91.569583,249.19528 120.0749,277.1365 120.0749,277.1365 97.083887,265.08554 74.703697,264.6227 74.703697,264.6227 c 4.731179,-27.43445 1.903938,-31.0596 -0.02136,-58.59137 z"
       id="path817"
       inkscape:connector-curvature="0"
       sodipodi:nodetypes="cccc" />
    <path
       style="fill:#cccccc;stroke:none;stroke-width:0.39851177px;stroke-linecap:butt;stroke-linejoin:miter;stroke-opacity:1"
       d="m 64.421238,169.3865 c 0,0 -15.349168,70.53902 -9.308553,96.48118 C 42.713518,264.60661 2.6281956,261.66974 2.6281956,261.66974 32.925368,238.70257 40.559286,205.25303 64.421238,169.3865 Z"
       id="path819"
       inkscape:connector-curvature="0"
       sodipodi:nodetypes="cccc" />
    <path
       style="fill:#cccccc;stroke:none;stroke-width:0.28265762px;stroke-linecap:butt;stroke-linejoin:miter;stroke-opacity:1"
       d="m 119.92338,279.25317 c 0,0 -10.75275,8.32108 -26.118232,10.16634 -6.308651,0.75761 -19.330301,0.56887 -29.857667,0.53961 -44.761884,-0.1244 -60.4999025,-16.01736 -60.4999025,-16.01736 13.9115945,-3.26183 28.4063355,1.3312 32.8423815,0.55244 l 17.889194,4.20066 c 6.810622,0.48 8.661529,3.87749 20.863647,1.18603 l 14.942165,-3.25866 c 8.444709,-0.11077 29.938414,2.63094 29.938414,2.63094 z"
       id="path821"
       inkscape:connector-curvature="0"
       sodipodi:nodetypes="csscccccc" />
    <path
       style="fill:#cccccc;fill-opacity:1;stroke:none;stroke-width:0.26788661px;stroke-linecap:butt;stroke-linejoin:miter;stroke-opacity:1"
       d="m 60.039713,276.28242 c 3.381032,-51.44379 8.482526,-112.83319 8.482526,-112.83319 0,0 4.021166,62.7429 0.865536,113.45837 z"
       id="path834"
       inkscape:connector-curvature="0"
       sodipodi:nodetypes="cccc" />
    <path
       style="fill:#cccccc;stroke:none;stroke-width:0.37533003px;stroke-linecap:butt;stroke-linejoin:miter;stroke-opacity:1"
       d="m 73.654386,172.58028 c 63.098144,-1.17606 58.862954,72.78897 58.862954,72.78897 -22.99102,-12.05096 -34.707158,2.64038 -34.707158,2.64038 5.739018,-28.9275 -23.127843,-41.9783 -24.155796,-75.42935 z"
       id="path817-3"
       inkscape:connector-curvature="0"
       sodipodi:nodetypes="cccc" />
  </g>
</svg>
